<svg xmlns="http://www.w3.org/2000/svg" width="500" height="500" style="width:100%;height:100%;transform:translate3d(0,0,0);content-visibility:visible" viewBox="0 0 500 500"><defs><clipPath id="c"><path d="M0 0h500v500H0z"/></clipPath><clipPath id="f"><path d="M0 0h500v500H0z"/></clipPath><clipPath id="d"><path d="M0 0h500v500H0z"/></clipPath><filter id="a" width="100%" height="100%" x="0%" y="0%" filterUnits="objectBoundingBox"><feComponentTransfer in="SourceGraphic"><feFuncA tableValues="1.0 0.0" type="table"/></feComponentTransfer></filter><mask id="e" mask-type="alpha"><g filter="url(#a)"><path fill="#fff" d="M0 0h500v500H0z" opacity="0"/><use xmlns:ns1="http://www.w3.org/1999/xlink" ns1:href="#b"/></g></mask><g id="b" class="primary design" style="display:none"><path class="primary"/></g></defs><g clip-path="url(#c)"><g clip-path="url(#d)" style="display:block"><g fill="none" class="primary design" style="display:none"><path class="primary"/><path class="primary"/></g><g class="primary design" mask="url(#e)" style="display:none"><path fill="none" class="primary"/></g><g class="primary design" style="display:none"><path class="primary"/><path fill="none" class="primary"/></g><g class="primary design" style="display:none"><path class="primary"/><path fill="none" class="primary"/></g><g class="primary design" style="display:block"><path fill="#121330" d="M434.342 151.893c-2.916-3.958-7.5-6.25-12.498-6.25l-256.834.209-3.125-16.04c-4.999-26.87-28.745-46.45-56.24-46.45H57.318c-8.54 0-15.623 7.082-15.623 15.623 0 8.54 7.082 15.622 15.623 15.622h48.325c12.498 0 23.33 8.957 25.621 21.247l5.416 28.745 24.371 145.393c1.25 7.5 7.707 13.123 15.414 13.123H348.73c25.413 0 48.118-17.08 54.992-41.66l33.12-115.814c1.457-4.791.416-9.79-2.5-13.748zm-60.616 121.022c-3.124 11.04-13.33 18.747-24.996 18.747H189.798l-19.164-114.565 230.588-.208-27.496 96.026zm-165.39 81.028c23.017 0 41.66 18.643 41.66 41.66 0 23.018-18.643 41.66-41.66 41.66-23.017 0-41.66-18.642-41.66-41.66 0-23.017 18.643-41.66 41.66-41.66zm135.187.209c23.017 0 41.66 18.643 41.66 41.66 0 23.017-18.643 41.66-41.66 41.66-23.017 0-41.66-18.643-41.66-41.66 0-23.017 18.643-41.66 41.66-41.66z" class="primary"/></g><g class="primary design" style="display:none"><path fill="#121330" d="M434.342 151.893c-2.916-3.958-7.5-6.25-12.498-6.25l-256.834.209-3.125-16.04c-4.999-26.87-28.745-46.45-56.24-46.45H57.318c-8.54 0-15.623 7.082-15.623 15.623 0 8.54 7.082 15.622 15.623 15.622h48.325c12.498 0 23.33 8.957 25.621 21.247l5.416 28.745 24.371 145.393c1.25 7.5 7.707 13.123 15.414 13.123H348.73c25.413 0 48.118-17.08 54.992-41.66l33.12-115.814c1.457-4.791.416-9.79-2.5-13.748zm-60.616 121.022c-3.124 11.04-13.33 18.747-24.996 18.747H189.798l-19.164-114.565 230.588-.208-27.496 96.026zm-165.39 81.028c23.017 0 41.66 18.643 41.66 41.66 0 23.018-18.643 41.66-41.66 41.66-23.017 0-41.66-18.642-41.66-41.66 0-23.017 18.643-41.66 41.66-41.66zm135.187.209c23.017 0 41.66 18.643 41.66 41.66 0 23.017-18.643 41.66-41.66 41.66-23.017 0-41.66-18.643-41.66-41.66 0-23.017 18.643-41.66 41.66-41.66z" class="primary"/></g></g><g clip-path="url(#f)" style="display:none"><g fill="none" class="primary design" style="display:none"><path class="primary"/><path class="primary"/></g><g class="primary design" style="display:none"><path class="primary"/><path fill="none" class="primary"/></g><g class="primary design" style="display:none"><path class="primary"/><path fill="none" class="primary"/></g><g class="primary design" style="display:none"><path class="primary"/><path class="primary"/><path class="primary"/></g></g></g></svg>